<svg xmlns="http://www.w3.org/2000/svg" viewBox="0 0 240 100" width="240" height="100">
  <!-- Trophy/Cup icon -->
  <path d="M100 8 L140 8 L136 36 Q134 48 120 52 Q106 48 104 36 Z" fill="none" stroke="#222" stroke-width="1.8"/>
  <!-- Trophy handles -->
  <path d="M100 14 Q86 14 86 24 Q86 34 100 34" fill="none" stroke="#222" stroke-width="1.5"/>
  <path d="M140 14 Q154 14 154 24 Q154 34 140 34" fill="none" stroke="#222" stroke-width="1.5"/>
  <!-- Trophy base -->
  <line x1="112" y1="52" x2="128" y2="52" stroke="#222" stroke-width="1.5"/>
  <rect x="108" y="52" width="24" height="4" rx="1" fill="none" stroke="#222" stroke-width="1"/>
  <rect x="104" y="56" width="32" height="3" rx="1" fill="none" stroke="#222" stroke-width="1"/>
  <!-- Star inside trophy -->
  <polygon points="120,14 123,22 131,22 125,27 127,35 120,31 113,35 115,27 109,22 117,22" fill="#222" opacity="0.15" stroke="#222" stroke-width="0.8"/>
  <!-- Title -->
  <text x="120" y="72" font-family="'Georgia', 'Times New Roman', serif" font-size="7" font-weight="700" fill="#222" text-anchor="middle" letter-spacing="2">COMMERCIAL BROKER</text>
  <text x="120" y="82" font-family="'Georgia', 'Times New Roman', serif" font-size="7" font-weight="700" fill="#222" text-anchor="middle" letter-spacing="2">AWARDS</text>
  <!-- Year/Category -->
  <text x="120" y="94" font-family="'Arial', 'Helvetica', sans-serif" font-size="5.5" font-weight="400" fill="#222" text-anchor="middle" letter-spacing="1">BTL Broker of the Year 2024</text>
</svg>